<svg xmlns="http://www.w3.org/2000/svg" viewBox="0 0 92 28" width="92" height="28">
	<style>
		tspan { white-space:pre }
		.shp0 { fill: #ffffff } 
	</style>
	<g id="latest works">
		<g id="images">
			<path id="preview" fill-rule="evenodd" class="shp0" d="M18.32 2.82C28.32 2.82 35.8 14.48 35.8 14.48C35.8 14.48 28.26 26.14 18.32 26.14C7.7 26.14 1.16 14.48 1.16 14.48C1.16 14.48 7.76 2.82 18.32 2.82ZM13.18 14.5C13.18 17.39 15.52 19.73 18.42 19.73C21.31 19.73 23.66 17.39 23.66 14.5C23.66 11.6 21.31 9.26 18.42 9.26C15.52 9.26 13.18 11.6 13.18 14.5ZM18.45 11.88C19.89 11.88 21.06 13.04 21.06 14.48C21.06 15.92 19.89 17.09 18.45 17.09C17.01 17.09 15.84 15.92 15.84 14.48C15.84 13.04 17.01 11.88 18.45 11.88Z" />
			<path id="link" class="shp0" d="M90.36 7.81L86.86 13.87C86.31 14.83 85.09 15.15 84.13 14.6L83.26 14.1L84.26 12.37L84.26 12.37C84.74 12.65 85.35 12.48 85.63 12L88.13 7.67C88.41 7.2 88.24 6.58 87.76 6.31L84.3 4.31C83.82 4.03 83.21 4.2 82.93 4.67L80.43 9C80.16 9.48 80.32 10.09 80.8 10.37L79.8 12.1L78.93 11.6C77.98 11.05 77.65 9.83 78.2 8.87L81.7 2.81C82.25 1.85 83.48 1.52 84.43 2.08L89.63 5.08C90.59 5.63 90.91 6.85 90.36 7.81ZM78.53 18.3C78.05 18.02 77.89 17.41 78.17 16.93L82.16 10C82.44 9.53 83.05 9.36 83.53 9.64C84.01 9.91 84.17 10.53 83.9 11L79.9 17.93C79.62 18.41 79.01 18.57 78.53 18.3ZM77.8 15.57L77.8 15.57C77.32 15.29 76.71 15.45 76.43 15.93L73.93 20.26C73.66 20.74 73.82 21.35 74.3 21.63L77.76 23.63C78.24 23.9 78.85 23.74 79.13 23.26L81.63 18.93C81.91 18.45 81.74 17.84 81.26 17.57L81.26 17.57L82.26 15.83L83.13 16.33C84.09 16.89 84.41 18.11 83.86 19.07L80.36 25.13C79.81 26.09 78.59 26.41 77.63 25.86L72.43 22.86C71.48 22.31 71.15 21.09 71.7 20.13L75.2 14.07C75.75 13.11 76.98 12.78 77.93 13.33L78.8 13.83L77.8 15.57Z" />
		</g>
	</g>
</svg>